<svg width="17" height="22" viewBox="0 0 17 22" fill="none" xmlns="http://www.w3.org/2000/svg">
<path fill-rule="evenodd" clip-rule="evenodd" d="M7.67429 16.8535L2.30169 20.103C1.87273 20.3491 1.34427 20.1749 1.10778 19.7094V19.7094C1.03937 19.5652 1.00245 19.4053 1 19.2426V4.84439C1 2.0984 2.69966 1 5.14552 1H10.8912C13.2625 1 15.0367 2.02517 15.0367 4.66133V19.2426C15.0367 19.5023 14.9433 19.7514 14.7769 19.9351C14.6105 20.1188 14.3849 20.222 14.1496 20.222C13.9995 20.2193 13.852 20.1786 13.7185 20.103L8.3127 16.8535C8.11351 16.7347 7.87349 16.7347 7.67429 16.8535Z" stroke="currentColor" stroke-width="2" stroke-linecap="round" stroke-linejoin="round"/>
</svg>
